<?xml version="1.0" standalone="no"?>
<!DOCTYPE svg PUBLIC "-//W3C//DTD SVG 20010904//EN"
 "http://www.w3.org/TR/2001/REC-SVG-20010904/DTD/svg10.dtd">
<svg version="1.0" xmlns="http://www.w3.org/2000/svg"
 width="260.000000pt" height="260.000000pt" viewBox="0 0 260.000000 260.000000"
 preserveAspectRatio="xMidYMid meet">
<metadata>
Created by potrace 1.11, written by Peter Selinger 2001-2013
</metadata>
<g transform="translate(0.000000,260.000000) scale(0.100000,-0.100000)"
fill="#000000" stroke="none">
<path d="M1015 2581 c-4 -9 -6 -348 -5 -753 0 -591 -2 -738 -12 -739 -20 -1
-80 -1 -109 0 -25 1 -25 3 -25 74 1 39 5 75 11 79 7 5 6 8 -1 8 -6 0 -11 26
-12 66 -1 61 0 65 16 52 16 -12 16 -11 2 6 -12 15 -15 55 -16 199 0 210 10
195 -126 192 -58 -1 -88 2 -88 9 0 7 -3 8 -8 1 -4 -6 -23 -10 -42 -10 -32 0
-35 -3 -40 -35 -3 -19 -5 -139 -5 -267 0 -139 -3 -229 -9 -226 -5 4 -6 0 0 -8
13 -21 12 -309 -1 -309 -7 0 -7 -3 1 -8 12 -8 12 -91 0 -111 -6 -9 -5 -12 2
-7 5 3 12 1 14 -5 3 -8 73 -11 225 -11 l222 -1 0 -371 c0 -204 1 -379 1 -388
0 -17 18 -18 230 -18 l230 0 0 188 c1 103 1 346 1 540 -1 305 1 353 14 348 8
-3 16 -2 19 2 5 8 63 8 72 0 3 -4 18 -3 32 1 33 10 55 3 45 -12 -4 -7 1 -6 11
2 13 11 51 14 164 14 81 -1 152 -2 157 -3 6 -1 15 -1 20 0 6 1 17 3 25 4 13 1
15 61 15 461 1 253 -3 468 -8 478 -6 13 -18 17 -46 16 -20 -2 -42 1 -49 5 -7
4 -12 4 -12 -1 0 -9 -92 -9 -107 0 -6 4 -13 3 -17 0 -4 -4 -17 -8 -29 -8 -21
0 -22 -4 -23 -111 0 -61 -4 -116 -8 -122 -4 -7 -4 -12 1 -12 10 0 9 -142 -1
-158 -3 -6 -2 -13 4 -17 7 -4 7 -12 0 -24 -5 -10 -6 -21 -3 -25 10 -10 10 -96
0 -96 -4 0 -5 -6 -1 -12 12 -19 12 -48 0 -48 -6 0 -6 -4 1 -11 6 -6 9 -18 6
-25 -4 -11 -34 -14 -144 -13 l-138 0 0 611 c0 336 -3 614 -7 617 -3 3 -104 6
-224 6 -188 1 -220 -1 -225 -14z"/>
</g>
</svg>
